<?xml version="1.0" standalone="no"?>
<!DOCTYPE svg PUBLIC "-//W3C//DTD SVG 20010904//EN"
 "http://www.w3.org/TR/2001/REC-SVG-20010904/DTD/svg10.dtd">
<svg version="1.0" xmlns="http://www.w3.org/2000/svg"
 width="927.000000pt" height="917.000000pt" viewBox="0 0 927.000000 917.000000"
 preserveAspectRatio="xMidYMid meet">
<metadata>
</metadata>
<g transform="translate(0.000000,917.000000) scale(0.100000,-0.100000)"
fill="#000000" stroke="none">
<path d="M0 4585 l0 -4585 4635 0 4635 0 0 700 0 700 -225 0 -225 0 0 -520 0
-520 -4160 0 -4160 0 0 4165 0 4165 4160 0 4160 0 0 -520 0 -520 225 0 225 0
0 760 0 760 -4635 0 -4635 0 0 -4585z"/>
<path d="M2440 4525 l0 -2885 575 0 575 0 0 1155 0 1155 1160 0 1160 0 0
-1155 0 -1155 575 0 575 0 0 2885 0 2885 -575 0 -575 0 0 -1155 0 -1155 -1160
0 -1160 0 0 1155 0 1155 -575 0 -575 0 0 -2885z"/>
</g>
</svg>
